<?xml version="1.0" standalone="no"?>
<!DOCTYPE svg PUBLIC "-//W3C//DTD SVG 20010904//EN"
 "http://www.w3.org/TR/2001/REC-SVG-20010904/DTD/svg10.dtd">
<svg version="1.0" xmlns="http://www.w3.org/2000/svg"
 width="16.000000pt" height="16.000000pt" viewBox="0 0 16.000000 16.000000"
 preserveAspectRatio="xMidYMid meet">
<metadata>
Created by potrace 1.11, written by Peter Selinger 2001-2013
</metadata>
<g transform="translate(0.000000,16.000000) scale(0.006250,-0.006250)"
fill="#000000" stroke="none">
<path d="M1085 2545 c-167 -26 -310 -78 -460 -166 -311 -184 -523 -484 -602
-852 -25 -114 -25 -380 0 -494 91 -425 359 -756 753 -930 365 -161 848 -126
1178 85 339 217 551 550 596 935 91 773 -508 1444 -1283 1436 -56 -1 -138 -7
-182 -14z m493 -555 c12 -11 25 -32 28 -46 5 -18 -54 -189 -226 -652 -268
-723 -267 -720 -291 -732 -30 -17 -84 -11 -107 10 -36 34 -37 64 -4 153 218
592 454 1223 466 1246 18 34 28 39 77 40 22 1 43 -6 57 -19z m-649 -346 c26
-22 31 -33 31 -71 0 -44 -3 -47 -122 -169 l-121 -124 121 -124 c119 -121 122
-125 122 -168 0 -34 -6 -50 -24 -67 -26 -25 -79 -31 -112 -13 -11 6 -90 82
-176 169 -155 157 -158 160 -158 203 0 43 3 46 153 198 202 205 225 218 286
166z m794 12 c18 -7 103 -86 190 -174 153 -155 157 -161 157 -202 0 -41 -4
-46 -157 -202 -87 -88 -166 -164 -177 -170 -33 -18 -86 -12 -112 13 -18 17
-24 33 -24 67 0 43 3 47 122 168 l121 124 -121 124 c-119 121 -122 125 -122
168 0 47 24 81 65 91 11 3 21 5 23 6 1 0 17 -5 35 -13z"/>
</g>
</svg>
